<svg width="101" height="30" viewBox="0 0 101 30" fill="none" xmlns="http://www.w3.org/2000/svg">
<path d="M23.5825 8.18459C23.5825 8.18459 21.3243 3 13.044 3C5.03383 3.5503 0.822125 9.38782 1.00576 15.5907C1.18316 21.5828 6.67464 26.7942 12.8265 26.9941C19.4136 27.2082 25.8526 21.5159 24.9072 15.8794C24.3471 12.5395 19.6488 10.684 17.5723 14.1094C16.5883 15.7327 15.6936 18.5536 12.2913 18.5536C9.92121 18.5536 7.022 15.3836 8.5275 12.6284" stroke="white" stroke-width="2" stroke-linecap="round" stroke-linejoin="round"/>
<path d="M29.968 24V7.344H31.552L32.224 9.96V24H29.968ZM41.488 24L31.264 10.344L31.552 7.344L41.8 20.976L41.488 24ZM41.488 24L40.816 21.528V7.344H43.072V24H41.488ZM50.2471 24.24C49.6071 24.24 48.9991 24.16 48.4231 24C47.8631 23.824 47.3431 23.584 46.8631 23.28C46.3831 22.96 45.9671 22.584 45.6151 22.152L47.0071 20.76C47.4231 21.272 47.9031 21.656 48.4471 21.912C48.9911 22.152 49.5991 22.272 50.2711 22.272C50.9431 22.272 51.4631 22.16 51.8311 21.936C52.1991 21.696 52.3831 21.368 52.3831 20.952C52.3831 20.536 52.2311 20.216 51.9271 19.992C51.6391 19.752 51.2631 19.56 50.7991 19.416C50.3351 19.256 49.8391 19.104 49.3111 18.96C48.7991 18.8 48.3111 18.6 47.8471 18.36C47.3831 18.12 46.9991 17.792 46.6951 17.376C46.4071 16.96 46.2631 16.408 46.2631 15.72C46.2631 15.032 46.4311 14.44 46.7671 13.944C47.1031 13.432 47.5671 13.04 48.1591 12.768C48.7671 12.496 49.4951 12.36 50.3431 12.36C51.2391 12.36 52.0311 12.52 52.7191 12.84C53.4231 13.144 53.9991 13.608 54.4471 14.232L53.0551 15.624C52.7351 15.208 52.3351 14.888 51.8551 14.664C51.3911 14.44 50.8631 14.328 50.2711 14.328C49.6471 14.328 49.1671 14.44 48.8311 14.664C48.5111 14.872 48.3511 15.168 48.3511 15.552C48.3511 15.936 48.4951 16.232 48.7831 16.44C49.0711 16.648 49.4471 16.824 49.9111 16.968C50.3911 17.112 50.8871 17.264 51.3991 17.424C51.9111 17.568 52.3991 17.768 52.8631 18.024C53.3271 18.28 53.7031 18.624 53.9911 19.056C54.2951 19.488 54.4471 20.056 54.4471 20.76C54.4471 21.832 54.0631 22.68 53.2951 23.304C52.5431 23.928 51.5271 24.24 50.2471 24.24ZM56.8893 24V12.6H59.0493V24H56.8893ZM57.9693 10.32C57.5693 10.32 57.2413 10.192 56.9853 9.936C56.7293 9.664 56.6013 9.328 56.6013 8.928C56.6013 8.544 56.7293 8.224 56.9853 7.968C57.2413 7.696 57.5693 7.56 57.9693 7.56C58.3693 7.56 58.6973 7.696 58.9533 7.968C59.2093 8.224 59.3373 8.544 59.3373 8.928C59.3373 9.328 59.2093 9.664 58.9533 9.936C58.6973 10.192 58.3693 10.32 57.9693 10.32ZM62.2324 24V12.6H64.3924V24H62.2324ZM69.9364 24V17.112C69.9364 16.264 69.6724 15.6 69.1444 15.12C68.6324 14.624 67.9844 14.376 67.2004 14.376C66.6724 14.376 66.2004 14.488 65.7844 14.712C65.3684 14.936 65.0324 15.248 64.7764 15.648C64.5204 16.048 64.3924 16.528 64.3924 17.088L63.5044 16.656C63.5044 15.792 63.6884 15.04 64.0564 14.4C64.4404 13.76 64.9604 13.264 65.6164 12.912C66.2724 12.544 67.0084 12.36 67.8244 12.36C68.6244 12.36 69.3444 12.536 69.9844 12.888C70.6404 13.24 71.1524 13.736 71.5204 14.376C71.9044 15.016 72.0964 15.776 72.0964 16.656V24H69.9364ZM77.6404 24V17.112C77.6404 16.264 77.3764 15.6 76.8484 15.12C76.3364 14.624 75.6964 14.376 74.9284 14.376C74.4004 14.376 73.9204 14.488 73.4884 14.712C73.0724 14.936 72.7364 15.248 72.4804 15.648C72.2244 16.048 72.0964 16.528 72.0964 17.088L70.8724 16.656C70.9204 15.776 71.1524 15.024 71.5684 14.4C72.0004 13.76 72.5524 13.264 73.2244 12.912C73.8964 12.544 74.6324 12.36 75.4324 12.36C76.2644 12.36 77.0084 12.536 77.6644 12.888C78.3204 13.24 78.8404 13.736 79.2244 14.376C79.6244 15.016 79.8244 15.784 79.8244 16.68V24H77.6404ZM88.7637 24.24C87.8997 24.24 87.1157 24.064 86.4117 23.712C85.7237 23.344 85.1717 22.84 84.7557 22.2C84.3397 21.56 84.1077 20.832 84.0597 20.016V16.584C84.1077 15.752 84.3397 15.024 84.7557 14.4C85.1877 13.76 85.7477 13.264 86.4357 12.912C87.1397 12.544 87.9157 12.36 88.7637 12.36C89.8037 12.36 90.7397 12.624 91.5717 13.152C92.4197 13.68 93.0837 14.392 93.5637 15.288C94.0437 16.184 94.2837 17.192 94.2837 18.312C94.2837 19.432 94.0437 20.44 93.5637 21.336C93.0837 22.232 92.4197 22.944 91.5717 23.472C90.7397 23.984 89.8037 24.24 88.7637 24.24ZM88.4037 22.2C89.1237 22.2 89.7557 22.032 90.2997 21.696C90.8437 21.36 91.2757 20.904 91.5957 20.328C91.9157 19.736 92.0757 19.056 92.0757 18.288C92.0757 17.536 91.9157 16.864 91.5957 16.272C91.2757 15.68 90.8437 15.224 90.2997 14.904C89.7557 14.568 89.1317 14.4 88.4277 14.4C87.7077 14.4 87.0757 14.568 86.5317 14.904C85.9877 15.224 85.5637 15.68 85.2597 16.272C84.9557 16.864 84.8037 17.544 84.8037 18.312C84.8037 19.064 84.9477 19.736 85.2357 20.328C85.5397 20.904 85.9637 21.36 86.5077 21.696C87.0677 22.032 87.6997 22.2 88.4037 22.2ZM82.7637 24V6.864H84.9237V15.384L84.5157 18.144L84.9237 20.928V24H82.7637ZM96.7564 24V12.6H98.9164V24H96.7564ZM97.8364 10.32C97.4364 10.32 97.1084 10.192 96.8524 9.936C96.5964 9.664 96.4684 9.328 96.4684 8.928C96.4684 8.544 96.5964 8.224 96.8524 7.968C97.1084 7.696 97.4364 7.56 97.8364 7.56C98.2364 7.56 98.5644 7.696 98.8204 7.968C99.0764 8.224 99.2044 8.544 99.2044 8.928C99.2044 9.328 99.0764 9.664 98.8204 9.936C98.5644 10.192 98.2364 10.32 97.8364 10.32Z" fill="white"/>
</svg>
